<mxfile host="app.diagrams.net" agent="Mozilla/5.0 (Windows NT 10.0; Win64; x64; rv:136.0) Gecko/20100101 Firefox/136.0" version="26.1.1">
  <diagram name="Page-1" id="WC2ewWJgoBWK-JPIIi09">
    <mxGraphModel dx="1434" dy="746" grid="1" gridSize="10" guides="1" tooltips="1" connect="1" arrows="1" fold="1" page="1" pageScale="1" pageWidth="1169" pageHeight="827" math="0" shadow="0">
      <root>
        <mxCell id="0" />
        <mxCell id="1" parent="0" />
        <mxCell id="EDUlIdILLlWNYBkE0sKc-70" style="edgeStyle=orthogonalEdgeStyle;rounded=0;orthogonalLoop=1;jettySize=auto;html=1;entryX=0;entryY=0.5;entryDx=0;entryDy=0;" edge="1" parent="1" source="EDUlIdILLlWNYBkE0sKc-1" target="EDUlIdILLlWNYBkE0sKc-5">
          <mxGeometry relative="1" as="geometry" />
        </mxCell>
        <mxCell id="EDUlIdILLlWNYBkE0sKc-1" value="&lt;div&gt;Start&lt;/div&gt;" style="ellipse;whiteSpace=wrap;html=1;" vertex="1" parent="1">
          <mxGeometry x="80" y="160" width="120" height="80" as="geometry" />
        </mxCell>
        <mxCell id="EDUlIdILLlWNYBkE0sKc-7" value="" style="edgeStyle=orthogonalEdgeStyle;rounded=0;orthogonalLoop=1;jettySize=auto;html=1;" edge="1" parent="1" source="EDUlIdILLlWNYBkE0sKc-5" target="EDUlIdILLlWNYBkE0sKc-6">
          <mxGeometry relative="1" as="geometry" />
        </mxCell>
        <mxCell id="EDUlIdILLlWNYBkE0sKc-5" value="&lt;div&gt;create spNugget&lt;/div&gt;&lt;div&gt;create spSkele&lt;/div&gt;&lt;div&gt;import all required libraries&lt;/div&gt;" style="rounded=0;whiteSpace=wrap;html=1;" vertex="1" parent="1">
          <mxGeometry x="350" y="170" width="150" height="60" as="geometry" />
        </mxCell>
        <mxCell id="EDUlIdILLlWNYBkE0sKc-9" value="" style="edgeStyle=orthogonalEdgeStyle;rounded=0;orthogonalLoop=1;jettySize=auto;html=1;" edge="1" parent="1" source="EDUlIdILLlWNYBkE0sKc-6" target="EDUlIdILLlWNYBkE0sKc-8">
          <mxGeometry relative="1" as="geometry" />
        </mxCell>
        <mxCell id="EDUlIdILLlWNYBkE0sKc-10" value="&lt;div&gt;Yes&lt;/div&gt;" style="edgeLabel;html=1;align=center;verticalAlign=middle;resizable=0;points=[];" vertex="1" connectable="0" parent="EDUlIdILLlWNYBkE0sKc-9">
          <mxGeometry x="-0.2" y="6" relative="1" as="geometry">
            <mxPoint as="offset" />
          </mxGeometry>
        </mxCell>
        <mxCell id="EDUlIdILLlWNYBkE0sKc-57" style="edgeStyle=orthogonalEdgeStyle;rounded=0;orthogonalLoop=1;jettySize=auto;html=1;entryX=0.5;entryY=0;entryDx=0;entryDy=0;" edge="1" parent="1" source="EDUlIdILLlWNYBkE0sKc-6" target="EDUlIdILLlWNYBkE0sKc-11">
          <mxGeometry relative="1" as="geometry" />
        </mxCell>
        <mxCell id="EDUlIdILLlWNYBkE0sKc-58" value="no" style="edgeLabel;html=1;align=center;verticalAlign=middle;resizable=0;points=[];" vertex="1" connectable="0" parent="EDUlIdILLlWNYBkE0sKc-57">
          <mxGeometry x="-0.4222" relative="1" as="geometry">
            <mxPoint as="offset" />
          </mxGeometry>
        </mxCell>
        <mxCell id="EDUlIdILLlWNYBkE0sKc-6" value="Is character dead?" style="rhombus;whiteSpace=wrap;html=1;" vertex="1" parent="1">
          <mxGeometry x="360" y="260" width="130" height="80" as="geometry" />
        </mxCell>
        <mxCell id="EDUlIdILLlWNYBkE0sKc-61" style="edgeStyle=orthogonalEdgeStyle;rounded=0;orthogonalLoop=1;jettySize=auto;html=1;entryX=0.5;entryY=0;entryDx=0;entryDy=0;" edge="1" parent="1" source="EDUlIdILLlWNYBkE0sKc-8" target="EDUlIdILLlWNYBkE0sKc-60">
          <mxGeometry relative="1" as="geometry" />
        </mxCell>
        <mxCell id="EDUlIdILLlWNYBkE0sKc-8" value="&lt;div&gt;Tint screen dark gray&lt;/div&gt;&lt;div&gt;Tint screen red&lt;/div&gt;&lt;div&gt;Display game over&lt;/div&gt;&lt;div&gt;Display score and high score&lt;/div&gt;" style="rounded=0;whiteSpace=wrap;html=1;" vertex="1" parent="1">
          <mxGeometry x="620" y="270" width="160" height="60" as="geometry" />
        </mxCell>
        <mxCell id="EDUlIdILLlWNYBkE0sKc-22" value="" style="edgeStyle=orthogonalEdgeStyle;rounded=0;orthogonalLoop=1;jettySize=auto;html=1;" edge="1" parent="1" source="EDUlIdILLlWNYBkE0sKc-11" target="EDUlIdILLlWNYBkE0sKc-13">
          <mxGeometry relative="1" as="geometry" />
        </mxCell>
        <mxCell id="EDUlIdILLlWNYBkE0sKc-56" value="&lt;div&gt;Keychecks&lt;/div&gt;" style="edgeLabel;html=1;align=center;verticalAlign=middle;resizable=0;points=[];" vertex="1" connectable="0" parent="EDUlIdILLlWNYBkE0sKc-22">
          <mxGeometry x="0.2889" y="2" relative="1" as="geometry">
            <mxPoint x="-8" y="8" as="offset" />
          </mxGeometry>
        </mxCell>
        <mxCell id="EDUlIdILLlWNYBkE0sKc-59" style="edgeStyle=orthogonalEdgeStyle;rounded=0;orthogonalLoop=1;jettySize=auto;html=1;entryX=0;entryY=0.5;entryDx=0;entryDy=0;" edge="1" parent="1" source="EDUlIdILLlWNYBkE0sKc-11" target="EDUlIdILLlWNYBkE0sKc-6">
          <mxGeometry relative="1" as="geometry">
            <Array as="points">
              <mxPoint x="360" y="350" />
              <mxPoint x="300" y="350" />
              <mxPoint x="300" y="300" />
            </Array>
          </mxGeometry>
        </mxCell>
        <mxCell id="EDUlIdILLlWNYBkE0sKc-62" value="&lt;div&gt;If no error&lt;/div&gt;" style="edgeLabel;html=1;align=center;verticalAlign=middle;resizable=0;points=[];" vertex="1" connectable="0" parent="EDUlIdILLlWNYBkE0sKc-59">
          <mxGeometry x="0.0947" y="-3" relative="1" as="geometry">
            <mxPoint as="offset" />
          </mxGeometry>
        </mxCell>
        <mxCell id="EDUlIdILLlWNYBkE0sKc-63" style="edgeStyle=orthogonalEdgeStyle;rounded=0;orthogonalLoop=1;jettySize=auto;html=1;entryX=0;entryY=0.5;entryDx=0;entryDy=0;" edge="1" parent="1" source="EDUlIdILLlWNYBkE0sKc-11" target="EDUlIdILLlWNYBkE0sKc-60">
          <mxGeometry relative="1" as="geometry" />
        </mxCell>
        <mxCell id="EDUlIdILLlWNYBkE0sKc-64" value="If error" style="edgeLabel;html=1;align=center;verticalAlign=middle;resizable=0;points=[];" vertex="1" connectable="0" parent="EDUlIdILLlWNYBkE0sKc-63">
          <mxGeometry x="-0.2" y="1" relative="1" as="geometry">
            <mxPoint as="offset" />
          </mxGeometry>
        </mxCell>
        <mxCell id="EDUlIdILLlWNYBkE0sKc-11" value="&lt;div&gt;Draw map to screen&lt;/div&gt;&lt;div&gt;Move spSkele and spNugget to floor of map&lt;/div&gt;&lt;div&gt;Keychecks&lt;/div&gt;&lt;div&gt;Move spNugget using return value from keychecks&lt;/div&gt;&lt;div&gt;Draw spSkele to screen&lt;/div&gt;&lt;div&gt;Draw spNugget to screen&lt;/div&gt;" style="rounded=0;whiteSpace=wrap;html=1;" vertex="1" parent="1">
          <mxGeometry x="320" y="370" width="240" height="100" as="geometry" />
        </mxCell>
        <mxCell id="EDUlIdILLlWNYBkE0sKc-23" value="" style="edgeStyle=orthogonalEdgeStyle;rounded=0;orthogonalLoop=1;jettySize=auto;html=1;" edge="1" parent="1" source="EDUlIdILLlWNYBkE0sKc-13" target="EDUlIdILLlWNYBkE0sKc-20">
          <mxGeometry relative="1" as="geometry" />
        </mxCell>
        <mxCell id="EDUlIdILLlWNYBkE0sKc-24" value="&lt;div&gt;No&lt;/div&gt;" style="edgeLabel;html=1;align=center;verticalAlign=middle;resizable=0;points=[];" vertex="1" connectable="0" parent="EDUlIdILLlWNYBkE0sKc-23">
          <mxGeometry x="0.32" y="-3" relative="1" as="geometry">
            <mxPoint as="offset" />
          </mxGeometry>
        </mxCell>
        <mxCell id="EDUlIdILLlWNYBkE0sKc-26" value="" style="edgeStyle=orthogonalEdgeStyle;rounded=0;orthogonalLoop=1;jettySize=auto;html=1;" edge="1" parent="1" source="EDUlIdILLlWNYBkE0sKc-13">
          <mxGeometry relative="1" as="geometry">
            <mxPoint x="100" y="410" as="targetPoint" />
          </mxGeometry>
        </mxCell>
        <mxCell id="EDUlIdILLlWNYBkE0sKc-41" value="Yes" style="edgeLabel;html=1;align=center;verticalAlign=middle;resizable=0;points=[];" vertex="1" connectable="0" parent="EDUlIdILLlWNYBkE0sKc-26">
          <mxGeometry x="-0.4" y="1" relative="1" as="geometry">
            <mxPoint as="offset" />
          </mxGeometry>
        </mxCell>
        <mxCell id="EDUlIdILLlWNYBkE0sKc-13" value="Is D or Right arrow being pressed" style="rhombus;whiteSpace=wrap;html=1;" vertex="1" parent="1">
          <mxGeometry x="140" y="360" width="130" height="100" as="geometry" />
        </mxCell>
        <mxCell id="EDUlIdILLlWNYBkE0sKc-36" value="" style="edgeStyle=orthogonalEdgeStyle;rounded=0;orthogonalLoop=1;jettySize=auto;html=1;" edge="1" parent="1" source="EDUlIdILLlWNYBkE0sKc-20">
          <mxGeometry relative="1" as="geometry">
            <mxPoint x="100" y="530" as="targetPoint" />
          </mxGeometry>
        </mxCell>
        <mxCell id="EDUlIdILLlWNYBkE0sKc-40" value="Yes" style="edgeLabel;html=1;align=center;verticalAlign=middle;resizable=0;points=[];" vertex="1" connectable="0" parent="EDUlIdILLlWNYBkE0sKc-36">
          <mxGeometry x="-0.3" y="-5" relative="1" as="geometry">
            <mxPoint as="offset" />
          </mxGeometry>
        </mxCell>
        <mxCell id="EDUlIdILLlWNYBkE0sKc-37" value="" style="edgeStyle=orthogonalEdgeStyle;rounded=0;orthogonalLoop=1;jettySize=auto;html=1;" edge="1" parent="1" source="EDUlIdILLlWNYBkE0sKc-20" target="EDUlIdILLlWNYBkE0sKc-33">
          <mxGeometry relative="1" as="geometry" />
        </mxCell>
        <mxCell id="EDUlIdILLlWNYBkE0sKc-20" value="Is A or Left arrow being pressed" style="rhombus;whiteSpace=wrap;html=1;" vertex="1" parent="1">
          <mxGeometry x="140" y="490" width="130" height="80" as="geometry" />
        </mxCell>
        <mxCell id="EDUlIdILLlWNYBkE0sKc-28" style="edgeStyle=orthogonalEdgeStyle;rounded=0;orthogonalLoop=1;jettySize=auto;html=1;entryX=0.5;entryY=0;entryDx=0;entryDy=0;" edge="1" parent="1" target="EDUlIdILLlWNYBkE0sKc-20">
          <mxGeometry relative="1" as="geometry">
            <mxPoint x="70" y="440" as="sourcePoint" />
            <Array as="points">
              <mxPoint x="70" y="470" />
              <mxPoint x="205" y="470" />
            </Array>
          </mxGeometry>
        </mxCell>
        <mxCell id="EDUlIdILLlWNYBkE0sKc-48" value="" style="edgeStyle=orthogonalEdgeStyle;rounded=0;orthogonalLoop=1;jettySize=auto;html=1;entryX=0.5;entryY=0;entryDx=0;entryDy=0;" edge="1" parent="1" source="EDUlIdILLlWNYBkE0sKc-31" target="EDUlIdILLlWNYBkE0sKc-65">
          <mxGeometry relative="1" as="geometry">
            <mxPoint x="100" y="830" as="targetPoint" />
          </mxGeometry>
        </mxCell>
        <mxCell id="EDUlIdILLlWNYBkE0sKc-49" value="Yes" style="edgeLabel;html=1;align=center;verticalAlign=middle;resizable=0;points=[];" vertex="1" connectable="0" parent="EDUlIdILLlWNYBkE0sKc-48">
          <mxGeometry x="0.24" y="1" relative="1" as="geometry">
            <mxPoint as="offset" />
          </mxGeometry>
        </mxCell>
        <mxCell id="EDUlIdILLlWNYBkE0sKc-51" value="" style="edgeStyle=orthogonalEdgeStyle;rounded=0;orthogonalLoop=1;jettySize=auto;html=1;" edge="1" parent="1" source="EDUlIdILLlWNYBkE0sKc-31" target="EDUlIdILLlWNYBkE0sKc-50">
          <mxGeometry relative="1" as="geometry" />
        </mxCell>
        <mxCell id="EDUlIdILLlWNYBkE0sKc-31" value="Is mouse key being pressed and is spNugget colliding with spSkele" style="rhombus;whiteSpace=wrap;html=1;" vertex="1" parent="1">
          <mxGeometry x="410" y="720" width="150" height="140" as="geometry" />
        </mxCell>
        <mxCell id="EDUlIdILLlWNYBkE0sKc-43" value="" style="edgeStyle=orthogonalEdgeStyle;rounded=0;orthogonalLoop=1;jettySize=auto;html=1;" edge="1" parent="1" source="EDUlIdILLlWNYBkE0sKc-33">
          <mxGeometry relative="1" as="geometry">
            <mxPoint x="100" y="660" as="targetPoint" />
          </mxGeometry>
        </mxCell>
        <mxCell id="EDUlIdILLlWNYBkE0sKc-44" value="" style="edgeStyle=orthogonalEdgeStyle;rounded=0;orthogonalLoop=1;jettySize=auto;html=1;" edge="1" parent="1" source="EDUlIdILLlWNYBkE0sKc-33" target="EDUlIdILLlWNYBkE0sKc-31">
          <mxGeometry relative="1" as="geometry" />
        </mxCell>
        <mxCell id="EDUlIdILLlWNYBkE0sKc-45" value="No" style="edgeLabel;html=1;align=center;verticalAlign=middle;resizable=0;points=[];" vertex="1" connectable="0" parent="EDUlIdILLlWNYBkE0sKc-44">
          <mxGeometry x="0.24" y="-4" relative="1" as="geometry">
            <mxPoint as="offset" />
          </mxGeometry>
        </mxCell>
        <mxCell id="EDUlIdILLlWNYBkE0sKc-33" value="Is space key being pressed" style="rhombus;whiteSpace=wrap;html=1;" vertex="1" parent="1">
          <mxGeometry x="420" y="580" width="130" height="100" as="geometry" />
        </mxCell>
        <mxCell id="EDUlIdILLlWNYBkE0sKc-38" style="edgeStyle=orthogonalEdgeStyle;rounded=0;orthogonalLoop=1;jettySize=auto;html=1;entryX=0.5;entryY=0;entryDx=0;entryDy=0;" edge="1" parent="1" target="EDUlIdILLlWNYBkE0sKc-33">
          <mxGeometry relative="1" as="geometry">
            <mxPoint x="70" y="560" as="sourcePoint" />
            <Array as="points">
              <mxPoint x="70" y="590" />
              <mxPoint x="205" y="590" />
            </Array>
          </mxGeometry>
        </mxCell>
        <mxCell id="EDUlIdILLlWNYBkE0sKc-39" value="&lt;div&gt;No&lt;/div&gt;" style="edgeLabel;html=1;align=center;verticalAlign=middle;resizable=0;points=[];" vertex="1" connectable="0" parent="EDUlIdILLlWNYBkE0sKc-38">
          <mxGeometry x="0.7622" y="7" relative="1" as="geometry">
            <mxPoint as="offset" />
          </mxGeometry>
        </mxCell>
        <mxCell id="EDUlIdILLlWNYBkE0sKc-46" style="edgeStyle=orthogonalEdgeStyle;rounded=0;orthogonalLoop=1;jettySize=auto;html=1;entryX=0.5;entryY=0;entryDx=0;entryDy=0;" edge="1" parent="1" target="EDUlIdILLlWNYBkE0sKc-31">
          <mxGeometry relative="1" as="geometry">
            <mxPoint x="70" y="690" as="sourcePoint" />
            <Array as="points">
              <mxPoint x="70" y="720" />
              <mxPoint x="205" y="720" />
            </Array>
          </mxGeometry>
        </mxCell>
        <mxCell id="EDUlIdILLlWNYBkE0sKc-55" value="" style="edgeStyle=orthogonalEdgeStyle;rounded=0;orthogonalLoop=1;jettySize=auto;html=1;" edge="1" parent="1" source="EDUlIdILLlWNYBkE0sKc-50" target="EDUlIdILLlWNYBkE0sKc-54">
          <mxGeometry relative="1" as="geometry" />
        </mxCell>
        <mxCell id="EDUlIdILLlWNYBkE0sKc-50" value="Do math to calculate movement" style="whiteSpace=wrap;html=1;aspect=fixed;" vertex="1" parent="1">
          <mxGeometry x="440" y="910" width="90" height="90" as="geometry" />
        </mxCell>
        <mxCell id="EDUlIdILLlWNYBkE0sKc-54" value="Return the result of the math" style="whiteSpace=wrap;html=1;aspect=fixed;" vertex="1" parent="1">
          <mxGeometry x="620" y="710" width="90" height="90" as="geometry" />
        </mxCell>
        <mxCell id="EDUlIdILLlWNYBkE0sKc-60" value="End" style="ellipse;whiteSpace=wrap;html=1;" vertex="1" parent="1">
          <mxGeometry x="660" y="480" width="120" height="80" as="geometry" />
        </mxCell>
        <mxCell id="EDUlIdILLlWNYBkE0sKc-69" style="edgeStyle=orthogonalEdgeStyle;rounded=0;orthogonalLoop=1;jettySize=auto;html=1;entryX=0;entryY=0.5;entryDx=0;entryDy=0;" edge="1" parent="1" source="EDUlIdILLlWNYBkE0sKc-65" target="EDUlIdILLlWNYBkE0sKc-50">
          <mxGeometry relative="1" as="geometry" />
        </mxCell>
        <mxCell id="EDUlIdILLlWNYBkE0sKc-65" value="spSkele.hp -= 1" style="shape=parallelogram;html=1;strokeWidth=2;perimeter=parallelogramPerimeter;whiteSpace=wrap;rounded=1;arcSize=12;size=0.23;" vertex="1" parent="1">
          <mxGeometry x="290" y="827" width="100" height="60" as="geometry" />
        </mxCell>
        <mxCell id="EDUlIdILLlWNYBkE0sKc-66" value="Make Actor jump" style="shape=parallelogram;html=1;strokeWidth=2;perimeter=parallelogramPerimeter;whiteSpace=wrap;rounded=1;arcSize=12;size=0.23;" vertex="1" parent="1">
          <mxGeometry x="10" y="620" width="100" height="60" as="geometry" />
        </mxCell>
        <mxCell id="EDUlIdILLlWNYBkE0sKc-67" value="kLeft=1" style="shape=parallelogram;html=1;strokeWidth=2;perimeter=parallelogramPerimeter;whiteSpace=wrap;rounded=1;arcSize=12;size=0.23;" vertex="1" parent="1">
          <mxGeometry x="10" y="500" width="100" height="60" as="geometry" />
        </mxCell>
        <mxCell id="EDUlIdILLlWNYBkE0sKc-68" value="kRight = 1" style="shape=parallelogram;html=1;strokeWidth=2;perimeter=parallelogramPerimeter;whiteSpace=wrap;rounded=1;arcSize=12;size=0.23;" vertex="1" parent="1">
          <mxGeometry x="10" y="380" width="100" height="60" as="geometry" />
        </mxCell>
      </root>
    </mxGraphModel>
  </diagram>
</mxfile>
